<svg width="26" height="26" viewBox="0 0 26 26" fill="none" xmlns="http://www.w3.org/2000/svg">
<path d="M25.9999 13C25.9959 16.1773 24.8301 19.2434 22.7223 21.6208C20.6145 23.9983 17.7101 25.5229 14.5562 25.9075C14.486 25.9155 14.4149 25.9085 14.3475 25.8869C14.2802 25.8654 14.2182 25.8298 14.1657 25.7826C14.1131 25.7353 14.0712 25.6775 14.0426 25.6128C14.014 25.5482 13.9995 25.4782 13.9999 25.4075V16H16.9999C17.137 16.0003 17.2727 15.9724 17.3986 15.9181C17.5244 15.8637 17.6378 15.7841 17.7315 15.6841C17.8253 15.5841 17.8975 15.4659 17.9437 15.3368C17.9899 15.2078 18.009 15.0706 17.9999 14.9338C17.9779 14.6766 17.8592 14.4374 17.6679 14.2642C17.4766 14.0909 17.2268 13.9966 16.9687 14H13.9999V11C13.9999 10.4696 14.2107 9.96089 14.5857 9.58582C14.9608 9.21074 15.4695 9.00003 15.9999 9.00003H17.9999C18.137 9.00033 18.2727 8.97244 18.3986 8.9181C18.5244 8.86375 18.6378 8.78411 18.7315 8.68412C18.8253 8.58412 18.8975 8.46592 18.9437 8.33684C18.9899 8.20776 19.009 8.07057 18.9999 7.93378C18.9778 7.6762 18.8588 7.43659 18.667 7.26329C18.4751 7.09 18.2247 6.99592 17.9662 7.00003H15.9999C14.9391 7.00003 13.9217 7.42146 13.1715 8.1716C12.4214 8.92175 11.9999 9.93916 11.9999 11V14H8.99994C8.86285 13.9997 8.72717 14.0276 8.60131 14.082C8.47546 14.1363 8.36212 14.216 8.26834 14.3159C8.17456 14.4159 8.10234 14.5341 8.05617 14.6632C8.01 14.7923 7.99086 14.9295 7.99994 15.0663C8.02206 15.3239 8.14105 15.5635 8.3329 15.7368C8.52476 15.9101 8.77519 16.0041 9.03369 16H11.9999V25.41C12.0004 25.4806 11.9859 25.5504 11.9574 25.615C11.9289 25.6795 11.887 25.7373 11.8346 25.7845C11.7822 25.8318 11.7204 25.8674 11.6532 25.889C11.5861 25.9106 11.5151 25.9178 11.4449 25.91C8.20664 25.5157 5.2344 23.9199 3.11654 21.4386C0.998673 18.9573 -0.110452 15.7713 0.00869322 12.5113C0.258693 5.76128 5.72619 0.273779 12.4812 0.0112794C14.2301 -0.0564631 15.9746 0.229218 17.6105 0.851235C19.2464 1.47325 20.7401 2.41883 22.0021 3.6314C23.2642 4.84397 24.2687 6.29863 24.9556 7.90837C25.6425 9.51811 25.9977 11.2499 25.9999 13Z" fill="#495D71"/>
</svg>
