<svg width="32" height="32" viewBox="0 0 32 32" fill="none" xmlns="http://www.w3.org/2000/svg">
<path d="M30.7076 9.70752L26.9701 13.445C26.2151 22.1975 18.8338 29 10.0001 29C8.18506 29 6.68881 28.7125 5.55256 28.145C4.63631 27.6863 4.26131 27.195 4.16756 27.055C4.08397 26.9297 4.02978 26.787 4.00906 26.6378C3.98834 26.4885 4.00161 26.3365 4.04789 26.1931C4.09417 26.0497 4.17225 25.9186 4.27631 25.8097C4.38036 25.7007 4.5077 25.6166 4.64881 25.5638C4.68131 25.5513 7.67881 24.4 9.58256 22.2088C8.52679 21.3407 7.60516 20.3214 6.84756 19.1838C5.29756 16.8825 3.56256 12.885 4.09756 6.91127C4.11452 6.72145 4.18536 6.54043 4.30175 6.38952C4.41814 6.23862 4.57523 6.12411 4.75451 6.05949C4.93379 5.99487 5.12781 5.98283 5.31371 6.02478C5.49961 6.06672 5.66965 6.16092 5.80381 6.29627C5.84756 6.34002 9.96381 10.4338 14.9963 11.7613V11C14.9944 10.2018 15.1522 9.41119 15.4605 8.67485C15.7688 7.93852 16.2213 7.27131 16.7913 6.71252C17.3449 6.15967 18.0037 5.72332 18.7287 5.4292C19.4537 5.13507 20.2302 4.98914 21.0126 5.00002C22.062 5.01037 23.0909 5.29208 23.9993 5.81777C24.9076 6.34346 25.6645 7.09524 26.1963 8.00002H30.0001C30.198 7.99986 30.3915 8.05843 30.556 8.1683C30.7206 8.27817 30.8489 8.4344 30.9247 8.61723C31.0004 8.80005 31.0202 9.00124 30.9816 9.19532C30.9429 9.38941 30.8476 9.56766 30.7076 9.70752Z" fill="#495D71"/>
</svg>
